<svg height="400" viewBox="0 0 600 400" width="600" xmlns="http://www.w3.org/2000/svg">
  <!-- Batsman -->
  <g id="batsman" transform="translate(50, 50)">
    <!-- Head -->
    <circle cx="50" cy="30" r="15" fill="#FFDBAC"/>
    <!-- Helmet -->
    <path d="M35 25 Q50 15 65 25 L65 35 Q50 25 35 35 Z" fill="#FF4444"/>
    <!-- Body -->
    <rect x="40" y="45" width="20" height="40" fill="#FFFFFF"/>
    <!-- Arms -->
    <rect x="25" y="50" width="12" height="4" fill="#FFDBAC" transform="rotate(-30 31 52)"/>
    <rect x="63" y="50" width="12" height="4" fill="#FFDBAC" transform="rotate(30 69 52)"/>
    <!-- Cricket Bat -->
    <rect x="15" y="40" width="8" height="30" fill="#8B4513" transform="rotate(-45 19 55)"/>
    <!-- Legs -->
    <rect x="42" y="85" width="6" height="25" fill="#FFFFFF"/>
    <rect x="52" y="85" width="6" height="25" fill="#FFFFFF"/>
    <!-- Pads -->
    <rect x="40" y="80" width="10" height="35" fill="#EEEEEE"/>
    <rect x="50" y="80" width="10" height="35" fill="#EEEEEE"/>
    <!-- Feet -->
    <ellipse cx="45" cy="115" rx="8" ry="4" fill="#000000"/>
    <ellipse cx="55" cy="115" rx="8" ry="4" fill="#000000"/>
  </g>

  <!-- Bowler -->
  <g id="bowler" transform="translate(250, 50)">
    <!-- Head -->
    <circle cx="50" cy="30" r="15" fill="#FFDBAC"/>
    <!-- Hair -->
    <path d="M35 20 Q50 10 65 20 Q60 25 50 25 Q40 25 35 20" fill="#654321"/>
    <!-- Body -->
    <rect x="40" y="45" width="20" height="40" fill="#4CAF50"/>
    <!-- Arms in bowling action -->
    <rect x="30" y="35" width="4" height="15" fill="#FFDBAC" transform="rotate(-60 32 42)"/>
    <rect x="66" y="55" width="4" height="15" fill="#FFDBAC" transform="rotate(45 68 62)"/>
    <!-- Ball in hand -->
    <circle cx="75" cy="45" r="3" fill="#FF0000"/>
    <!-- Legs in running motion -->
    <rect x="38" y="85" width="6" height="25" fill="#4CAF50" transform="rotate(-15 41 97)"/>
    <rect x="54" y="85" width="6" height="25" fill="#4CAF50" transform="rotate(20 57 97)"/>
    <!-- Feet -->
    <ellipse cx="40" cy="115" rx="8" ry="4" fill="#000000"/>
    <ellipse cx="65" cy="115" rx="8" ry="4" fill="#000000"/>
  </g>

  <!-- Wicket Keeper -->
  <g id="wicketkeeper" transform="translate(450, 60)">
    <!-- Head -->
    <circle cx="50" cy="30" r="15" fill="#FFDBAC"/>
    <!-- Helmet with grille -->
    <path d="M35 25 Q50 15 65 25 L65 35 Q50 25 35 35 Z" fill="#0066CC"/>
    <line x1="40" y1="28" x2="60" y2="28" stroke="#333" stroke-width="1"/>
    <line x1="40" y1="32" x2="60" y2="32" stroke="#333" stroke-width="1"/>
    <!-- Body in crouching position -->
    <rect x="35" y="45" width="30" height="25" fill="#FFFFFF"/>
    <!-- Arms ready to catch -->
    <rect x="20" y="50" width="12" height="4" fill="#FFDBAC"/>
    <rect x="68" y="50" width="12" height="4" fill="#FFDBAC"/>
    <!-- Gloves -->
    <circle cx="18" cy="52" r="6" fill="#8B4513"/>
    <circle cx="82" cy="52" r="6" fill="#8B4513"/>
    <!-- Legs in crouching position -->
    <rect x="38" y="70" width="8" height="20" fill="#FFFFFF" transform="rotate(-20 42 80)"/>
    <rect x="54" y="70" width="8" height="20" fill="#FFFFFF" transform="rotate(20 58 80)"/>
    <!-- Pads -->
    <rect x="35" y="70" width="12" height="25" fill="#EEEEEE"/>
    <rect x="53" y="70" width="12" height="25" fill="#EEEEEE"/>
  </g>

  <!-- Fielder -->
  <g id="fielder" transform="translate(150, 180)">
    <!-- Head -->
    <circle cx="50" cy="30" r="15" fill="#FFDBAC"/>
    <!-- Cap -->
    <path d="M35 25 Q50 15 65 25 L70 30 L65 35 Q50 25 35 35 Z" fill="#FF6600"/>
    <!-- Body -->
    <rect x="40" y="45" width="20" height="40" fill="#2196F3"/>
    <!-- Arms reaching to catch -->
    <rect x="25" y="40" width="4" height="15" fill="#FFDBAC" transform="rotate(-45 27 47)"/>
    <rect x="71" y="40" width="4" height="15" fill="#FFDBAC" transform="rotate(45 73 47)"/>
    <!-- Ball being caught -->
    <circle cx="50" cy="35" r="3" fill="#FF0000"/>
    <!-- Legs -->
    <rect x="42" y="85" width="6" height="25" fill="#2196F3"/>
    <rect x="52" y="85" width="6" height="25" fill="#2196F3"/>
    <!-- Feet -->
    <ellipse cx="45" cy="115" rx="8" ry="4" fill="#000000"/>
    <ellipse cx="55" cy="115" rx="8" ry="4" fill="#000000"/>
  </g>

  <!-- Cricket stumps -->
  <g id="stumps" transform="translate(300, 280)">
    <rect x="0" y="0" width="3" height="40" fill="#8B4513"/>
    <rect x="15" y="0" width="3" height="40" fill="#8B4513"/>
    <rect x="30" y="0" width="3" height="40" fill="#8B4513"/>
    <!-- Bails -->
    <rect x="-2" y="-2" width="8" height="2" fill="#8B4513"/>
    <rect x="13" y="-2" width="8" height="2" fill="#8B4513"/>
    <rect x="28" y="-2" width="8" height="2" fill="#8B4513"/>
  </g>
</svg>
